<svg width="256" height="139" viewBox="0 0 256 139" fill="none" xmlns="http://www.w3.org/2000/svg">
<g clip-path="url(#clip0_439_834)">
<path d="M116.474 113.498C106.153 113.494 96.0859 113.616 86.0236 113.447C77.1986 113.299 69.2384 110.531 63.198 103.848C53.2203 92.8091 55.0988 76.9492 70.2194 68.8512C73.8321 66.9164 77.9248 65.8811 82.0707 64.3295C81.968 58.0076 84.1289 52.067 88.6062 47.0519C95.6563 39.155 104.581 36.1753 114.963 37.2373C119.784 37.7305 124.104 39.597 128.177 42.178C128.733 42.5299 129.945 42.446 130.526 42.0642C142.192 34.3932 157.762 35.5081 168.013 44.9246C173.763 50.2058 176.623 56.822 176.466 64.0424C181.188 66.0651 185.788 67.5911 189.947 69.9088C198.866 74.8782 203.203 84.3011 200.838 94.0711C199.202 100.828 194.593 105.688 188.576 109.094C183.05 112.222 177.052 113.515 170.724 113.505C152.726 113.479 134.728 113.497 116.474 113.498ZM113.043 44.2273C108.373 43.9225 103.907 44.5403 99.744 46.8846C91.7975 51.3599 87.565 60.0765 89.7673 67.9317C97.6077 67.9317 105.511 67.9317 113.605 67.9317C113.605 73.2568 113.551 78.3726 113.658 83.485C113.676 84.3342 114.174 85.4435 114.824 85.9609C117.187 87.8413 118.104 90.1704 117.236 92.8898C116.296 95.8326 114.639 97.1015 111.641 97.1748C108.553 97.2503 106.596 95.8461 105.541 92.7995C104.689 90.3363 105.565 87.963 107.947 86.098C108.443 85.7101 109.157 85.1576 109.169 84.6663C109.268 80.6014 109.225 76.533 109.225 72.3536C100.527 72.3536 92.1648 72.5336 83.815 72.2868C78.7266 72.1364 74.4759 73.9882 70.6316 76.8594C63.4041 82.2576 62.5692 89.7463 65.8953 95.7934C69.9396 103.146 80.3542 107.541 89.1154 105.96C89.1154 103.28 89.0647 100.557 89.1366 97.8373C89.1728 96.4689 88.8475 95.6126 87.6101 94.7062C84.2109 92.2164 84.4604 86.833 87.8725 84.6646C90.6916 82.873 94.2356 83.4398 96.0668 85.9751C98.3329 89.1124 97.8383 92.6016 94.8407 94.9796C94.306 95.4038 93.5462 96.0005 93.5252 96.5423C93.4009 99.7496 93.4639 102.964 93.4639 106.116C104.851 106.116 115.894 106.116 127.11 106.116C127.11 96.6393 127.131 87.3366 127.057 78.0347C127.053 77.4902 126.376 76.8232 125.849 76.4331C123.588 74.757 122.622 72.0429 123.475 69.4611C124.468 66.4561 126.275 65.128 129.339 65.1519C132.344 65.1754 134.081 66.5128 135.111 69.5969C135.9 71.959 134.843 74.8005 132.854 76.4321C132.165 76.9971 131.538 78.0807 131.515 78.9444C131.387 83.7273 131.454 88.5155 131.454 93.3018C131.455 97.5529 131.454 101.804 131.454 106.152C132.114 106.213 132.521 106.285 132.928 106.285C146.408 106.274 159.892 106.44 173.365 106.12C176.981 106.034 180.702 104.822 184.112 103.462C186.77 102.402 189.476 100.813 190.942 97.63C177.769 97.63 164.976 97.6057 152.183 97.6881C151.383 97.6933 150.365 98.3554 149.832 99.0203C148.164 101.099 146.08 101.944 143.531 101.483C141.168 101.055 139.418 99.6535 138.88 97.2747C138.286 94.6489 138.538 92.0292 141.171 90.5481C142.49 89.8065 142.6 88.8969 142.596 87.6525C142.57 78.5072 142.584 69.3617 142.574 60.2164C142.573 59.566 142.473 58.9159 142.409 58.1278C132.191 58.1278 122.136 58.0975 112.082 58.1971C111.423 58.2036 110.661 59.1119 110.14 59.7572C107.748 62.7178 103.654 63.0772 100.931 60.4986C98.3414 58.0459 98.4139 53.7838 101.085 51.4374C103.885 48.9782 107.907 49.3082 110.001 52.449C110.883 53.7737 111.814 53.9363 113.145 53.9317C122.189 53.9003 131.233 53.9172 140.276 53.9076C141.01 53.9068 141.743 53.825 142.391 53.7858C142.391 50.6356 142.391 47.7176 142.391 44.7027C136.805 45.5513 132.927 48.9258 129.275 52.5563C123.074 46.6736 118.741 44.408 113.043 44.2273ZM147.25 74.6348C149.376 74.3443 151.83 75.9111 153.564 73.3866C155.253 70.929 157.688 70.2432 160.692 71.2234C163.217 72.0471 164.584 74.0233 164.582 76.8455C164.58 79.8523 163.057 81.8927 160.076 82.8842C157.783 83.6466 155.261 82.6653 153.593 80.508C153.135 79.9152 152.402 79.2523 151.727 79.1674C150.156 78.9698 148.544 79.1044 146.74 79.1044C146.74 82.0066 146.738 84.6376 146.741 87.2686C146.744 89.8058 150.213 93.3103 152.749 93.3114C165.634 93.3169 178.52 93.2616 191.404 93.3626C193.569 93.3795 194.179 92.5476 194.339 90.5949C194.911 83.6241 191.527 78.8703 185.891 75.4796C180.378 72.1628 174.328 70.9845 167.865 71.7655C174.216 55.5623 159.074 42.5366 146.86 44.4699C146.86 54.4329 146.86 64.4107 147.25 74.6348Z" fill="black"/>
</g>
<defs>
<clipPath id="clip0_439_834">
<rect width="256" height="139" fill="white"/>
</clipPath>
</defs>
</svg>
